<svg width="50" height="49" viewBox="0 0 50 49" fill="none" xmlns="http://www.w3.org/2000/svg">
<path d="M27.3438 40.625H0.78125C0.57405 40.625 0.375336 40.5427 0.228823 40.3962C0.08231 40.2497 0 40.0509 0 39.8438V0.78125C0 0.57405 0.08231 0.375336 0.228823 0.228823C0.375336 0.08231 0.57405 0 0.78125 0H41.4062V1.5625H1.5625V39.0625H27.3438V40.625Z" fill="white"/>
<path d="M41.4062 5.46875H36.7188C36.5115 5.46875 36.3128 5.38644 36.1663 5.23993C36.0198 5.09341 35.9375 4.8947 35.9375 4.6875V0.78125C35.9375 0.57405 36.0198 0.375336 36.1663 0.228823C36.3128 0.08231 36.5115 0 36.7188 0H41.4062C41.6135 0 41.8122 0.08231 41.9587 0.228823C42.1052 0.375336 42.1875 0.57405 42.1875 0.78125V4.6875C42.1875 4.8947 42.1052 5.09341 41.9587 5.23993C41.8122 5.38644 41.6135 5.46875 41.4062 5.46875ZM37.5 3.90625H40.625V1.5625H37.5V3.90625Z" fill="white"/>
<path d="M5.46875 5.46875H0.78125C0.57405 5.46875 0.375336 5.38644 0.228823 5.23993C0.08231 5.09341 0 4.8947 0 4.6875V0.78125C0 0.57405 0.08231 0.375336 0.228823 0.228823C0.375336 0.08231 0.57405 0 0.78125 0H5.46875C5.67595 0 5.87466 0.08231 6.02118 0.228823C6.16769 0.375336 6.25 0.57405 6.25 0.78125V4.6875C6.25 4.8947 6.16769 5.09341 6.02118 5.23993C5.87466 5.38644 5.67595 5.46875 5.46875 5.46875ZM1.5625 3.90625H4.6875V1.5625H1.5625V3.90625Z" fill="white"/>
<path d="M36.7188 5.46875H5.46875C5.26155 5.46875 5.06284 5.38644 4.91632 5.23993C4.76981 5.09341 4.6875 4.8947 4.6875 4.6875V0.78125C4.6875 0.57405 4.76981 0.375336 4.91632 0.228823C5.06284 0.08231 5.26155 0 5.46875 0H36.7188C36.9259 0 37.1247 0.08231 37.2712 0.228823C37.4177 0.375336 37.5 0.57405 37.5 0.78125V4.6875C37.5 4.8947 37.4177 5.09341 37.2712 5.23993C37.1247 5.38644 36.9259 5.46875 36.7188 5.46875ZM6.25 3.90625H35.9375V1.5625H6.25V3.90625Z" fill="white"/>
<path d="M49.2188 48.4376H19.5313C19.3768 48.4375 19.2258 48.3917 19.0974 48.3059C18.9689 48.22 18.8688 48.098 18.8097 47.9553C18.7506 47.8125 18.7351 47.6555 18.7652 47.504C18.7954 47.3524 18.8698 47.2132 18.979 47.104L48.6665 17.4165C48.7757 17.3073 48.9149 17.2329 49.0665 17.2027C49.218 17.1726 49.375 17.1881 49.5178 17.2472C49.6605 17.3063 49.7825 17.4064 49.8684 17.5349C49.9542 17.6633 50 17.8143 50.0001 17.9688V47.6563C50.0001 47.8635 49.9178 48.0622 49.7713 48.2088C49.6247 48.3553 49.426 48.4376 49.2188 48.4376ZM21.4173 46.8751H48.4376V19.8548L21.4173 46.8751Z" fill="white"/>
<path d="M45.3126 44.5313H28.9063C28.7518 44.5313 28.6008 44.4855 28.4724 44.3996C28.3439 44.3138 28.2438 44.1918 28.1847 44.049C28.1256 43.9063 28.1101 43.7492 28.1402 43.5977C28.1704 43.4462 28.2448 43.307 28.354 43.1977L44.7602 26.7915C44.8695 26.6823 45.0087 26.6079 45.1602 26.5777C45.3117 26.5476 45.4688 26.5631 45.6115 26.6222C45.7543 26.6813 45.8763 26.7814 45.9621 26.9099C46.048 27.0383 46.0938 27.1893 46.0938 27.3438V43.7501C46.0938 43.9573 46.0115 44.156 45.865 44.3025C45.7185 44.449 45.5198 44.5313 45.3126 44.5313ZM30.7923 42.9688H44.5313V29.2298L30.7923 42.9688Z" fill="white"/>
<path d="M42.1875 0.78125H40.625V22.6562H42.1875V0.78125Z" fill="white"/>
<path d="M41.4062 40.625H35.9375V39.0625H40.625V31.25H42.1875V39.8438C42.1875 40.051 42.1052 40.2497 41.9587 40.3962C41.8122 40.5427 41.6135 40.625 41.4062 40.625Z" fill="white"/>
<path d="M34.375 22.6562H32.8125C32.8125 19.5482 31.5779 16.5675 29.3802 14.3698C27.1825 12.1722 24.2018 10.9375 21.0938 10.9375C17.9857 10.9375 15.005 12.1722 12.8073 14.3698C10.6097 16.5675 9.375 19.5482 9.375 22.6562H7.8125C7.8125 19.1338 9.21177 15.7557 11.7025 13.265C14.1932 10.7743 17.5713 9.375 21.0938 9.375C24.6162 9.375 27.9943 10.7743 30.485 13.265C32.9757 15.7557 34.375 19.1338 34.375 22.6562Z" fill="white"/>
<path d="M23.4398 30.4255L22.9171 39.8L24.4772 39.887L24.9998 30.5125L23.4398 30.4255Z" fill="white"/>
<path d="M24.2188 28.1249H17.9688C17.7616 28.1249 17.5628 28.0426 17.4163 27.8961C17.2698 27.7496 17.1875 27.5509 17.1875 27.3437V25.7812C17.204 25.469 17.1548 25.1569 17.0428 24.8651C16.9309 24.5732 16.7588 24.3082 16.5378 24.0871C16.3168 23.8661 16.0517 23.6941 15.7599 23.5821C15.468 23.4702 15.1559 23.4209 14.8438 23.4374C14.7109 23.4368 14.5804 23.4024 14.4646 23.3373C14.3488 23.2722 14.2514 23.1787 14.1818 23.0655C14.1122 22.9523 14.0726 22.8233 14.0668 22.6906C14.061 22.5578 14.0891 22.4258 14.1484 22.307L20.3984 9.80697C20.4706 9.6859 20.573 9.58564 20.6956 9.51602C20.8182 9.44639 20.9567 9.40979 21.0977 9.40979C21.2386 9.40979 21.3772 9.44639 21.4997 9.51602C21.6223 9.58564 21.7247 9.6859 21.7969 9.80697L28.0469 22.307C28.1066 22.4264 28.1346 22.5591 28.1284 22.6925C28.1222 22.8259 28.0819 22.9554 28.0114 23.0688C27.9409 23.1822 27.8425 23.2756 27.7256 23.3401C27.6087 23.4047 27.4773 23.4382 27.3438 23.4374C27.0316 23.4208 26.7194 23.47 26.4275 23.5819C26.1356 23.6938 25.8705 23.8658 25.6494 24.0869C25.4284 24.3079 25.2563 24.573 25.1444 24.8649C25.0325 25.1568 24.9833 25.469 25 25.7812V27.3437C25 27.5509 24.9177 27.7496 24.7712 27.8961C24.6247 28.0426 24.426 28.1249 24.2188 28.1249ZM18.75 26.5624H23.4375V25.7812C23.3861 24.9386 23.6308 24.1045 24.1292 23.4231C24.6277 22.7418 25.3485 22.2561 26.1672 22.0499L21.0938 11.9031L16.0203 22.0499C16.839 22.2561 17.5598 22.7418 18.0583 23.4231C18.5567 24.1045 18.8014 24.9386 18.75 25.7812V26.5624Z" fill="white"/>
<path d="M21.0938 24.2188C20.6302 24.2188 20.1771 24.0813 19.7916 23.8238C19.4062 23.5662 19.1058 23.2002 18.9284 22.7719C18.751 22.3437 18.7046 21.8724 18.795 21.4178C18.8855 20.9631 19.1087 20.5455 19.4365 20.2177C19.7642 19.8899 20.1819 19.6667 20.6365 19.5763C21.0912 19.4859 21.5624 19.5323 21.9907 19.7097C22.4189 19.8871 22.785 20.1875 23.0425 20.5729C23.3 20.9583 23.4375 21.4115 23.4375 21.875C23.4375 22.4966 23.1906 23.0927 22.751 23.5323C22.3115 23.9718 21.7154 24.2188 21.0938 24.2188ZM21.0938 21.0938C20.9392 21.0938 20.7882 21.1396 20.6597 21.2254C20.5312 21.3113 20.4311 21.4333 20.372 21.576C20.3128 21.7188 20.2974 21.8759 20.3275 22.0274C20.3577 22.179 20.4321 22.3182 20.5413 22.4274C20.6506 22.5367 20.7898 22.6111 20.9413 22.6412C21.0929 22.6714 21.25 22.6559 21.3927 22.5968C21.5355 22.5377 21.6575 22.4375 21.7433 22.309C21.8292 22.1806 21.875 22.0295 21.875 21.875C21.875 21.6678 21.7927 21.4691 21.6462 21.3226C21.4997 21.1761 21.301 21.0938 21.0938 21.0938Z" fill="white"/>
<path d="M21.875 10.1562H20.3125V20.3125H21.875V10.1562Z" fill="white"/>
<path d="M25.7812 31.25H16.4062C16.199 31.25 16.0003 31.1677 15.8538 31.0212C15.7073 30.8747 15.625 30.676 15.625 30.4688V27.3438C15.625 27.1365 15.7073 26.9378 15.8538 26.7913C16.0003 26.6448 16.199 26.5625 16.4062 26.5625H25.7812C25.9885 26.5625 26.1872 26.6448 26.3337 26.7913C26.4802 26.9378 26.5625 27.1365 26.5625 27.3438V30.4688C26.5625 30.676 26.4802 30.8747 26.3337 31.0212C26.1872 31.1677 25.9885 31.25 25.7812 31.25ZM17.1875 29.6875H25V28.125H17.1875V29.6875Z" fill="white"/>
<path d="M18.7487 30.4259L17.1886 30.5126L17.7093 39.8872L19.2694 39.8005L18.7487 30.4259Z" fill="white"/>
<path d="M24.2188 32.8125H17.9688V34.375H24.2188V32.8125Z" fill="white"/>
<path d="M10.1562 26.5625H7.03125C6.82405 26.5625 6.62534 26.4802 6.47882 26.3337C6.33231 26.1872 6.25 25.9885 6.25 25.7812V22.6562C6.25 22.449 6.33231 22.2503 6.47882 22.1038C6.62534 21.9573 6.82405 21.875 7.03125 21.875H10.1562C10.3635 21.875 10.5622 21.9573 10.7087 22.1038C10.8552 22.2503 10.9375 22.449 10.9375 22.6562V25.7812C10.9375 25.9885 10.8552 26.1872 10.7087 26.3337C10.5622 26.4802 10.3635 26.5625 10.1562 26.5625ZM7.8125 25H9.375V23.4375H7.8125V25Z" fill="white"/>
<path d="M35.1562 26.5625H32.0312C31.824 26.5625 31.6253 26.4802 31.4788 26.3337C31.3323 26.1872 31.25 25.9885 31.25 25.7812V22.6562C31.25 22.449 31.3323 22.2503 31.4788 22.1038C31.6253 21.9573 31.824 21.875 32.0312 21.875H35.1562C35.3635 21.875 35.5622 21.9573 35.7087 22.1038C35.8552 22.2503 35.9375 22.449 35.9375 22.6562V25.7812C35.9375 25.9885 35.8552 26.1872 35.7087 26.3337C35.5622 26.4802 35.3635 26.5625 35.1562 26.5625ZM32.8125 25H34.375V23.4375H32.8125V25Z" fill="white"/>
<path d="M36.7188 12.5H33.5938C33.3865 12.5 33.1878 12.4177 33.0413 12.2712C32.8948 12.1247 32.8125 11.926 32.8125 11.7188V8.59375C32.8125 8.38655 32.8948 8.18784 33.0413 8.04132C33.1878 7.89481 33.3865 7.8125 33.5938 7.8125H36.7188C36.926 7.8125 37.1247 7.89481 37.2712 8.04132C37.4177 8.18784 37.5 8.38655 37.5 8.59375V11.7188C37.5 11.926 37.4177 12.1247 37.2712 12.2712C37.1247 12.4177 36.926 12.5 36.7188 12.5ZM34.375 10.9375H35.9375V9.375H34.375V10.9375Z" fill="white"/>
<path d="M8.59375 12.5H5.46875C5.26155 12.5 5.06284 12.4177 4.91632 12.2712C4.76981 12.1247 4.6875 11.926 4.6875 11.7188V8.59375C4.6875 8.38655 4.76981 8.18784 4.91632 8.04132C5.06284 7.89481 5.26155 7.8125 5.46875 7.8125H8.59375C8.80095 7.8125 8.99966 7.89481 9.14618 8.04132C9.29269 8.18784 9.375 8.38655 9.375 8.59375V11.7188C9.375 11.926 9.29269 12.1247 9.14618 12.2712C8.99966 12.4177 8.80095 12.5 8.59375 12.5ZM6.25 10.9375H7.8125V9.375H6.25V10.9375Z" fill="white"/>
<path d="M33.5938 9.375H8.59375V10.9375H33.5938V9.375Z" fill="white"/>
</svg>
