<svg width="55" height="42" viewBox="0 0 55 42" fill="none" xmlns="http://www.w3.org/2000/svg">
<path d="M43.8701 21.0211C45.3844 21.0211 46.6119 19.7935 46.6119 18.2792C46.6119 16.7649 45.3844 15.5374 43.8701 15.5374C42.3558 15.5374 41.1282 16.7649 41.1282 18.2792C41.1282 19.7935 42.3558 21.0211 43.8701 21.0211Z" fill="white"/>
<path d="M33.8166 21.0211C35.3309 21.0211 36.5585 19.7935 36.5585 18.2792C36.5585 16.7649 35.3309 15.5374 33.8166 15.5374C32.3023 15.5374 31.0747 16.7649 31.0747 18.2792C31.0747 19.7935 32.3023 21.0211 33.8166 21.0211Z" fill="white"/>
<path d="M23.763 21.0211C25.2773 21.0211 26.5049 19.7935 26.5049 18.2792C26.5049 16.7649 25.2773 15.5374 23.763 15.5374C22.2487 15.5374 21.0211 16.7649 21.0211 18.2792C21.0211 19.7935 22.2487 21.0211 23.763 21.0211Z" fill="white"/>
<path d="M51.5017 28.1683C53.6522 25.3185 54.8225 21.8493 54.8377 18.2792C54.8377 8.22565 45.4056 0 33.8166 0C26.185 0 19.1932 3.56445 15.5373 9.33154C6.63536 10.5014 0 17.0819 0 24.814C0.0131353 27.8634 1.02072 30.8252 2.86984 33.2499L0.813425 40.8906C0.775794 41.0576 0.785828 41.2318 0.842383 41.3934C0.898939 41.555 0.999743 41.6975 1.13331 41.8046C1.27433 41.9154 1.44484 41.9823 1.62361 41.997C1.80239 42.0116 1.98151 41.9733 2.13867 41.8868L8.82886 38.1853C11.7486 39.7001 14.9899 40.49 18.2792 40.4885C22.753 40.5333 27.1118 39.0718 30.6542 36.3391C31.7023 36.4829 32.7587 36.5562 33.8166 36.5584C37.6367 36.5789 41.4032 35.6592 44.7841 33.8805L52.5802 38.2675C52.7114 38.342 52.8589 38.3828 53.0097 38.3864C53.2117 38.3857 53.4077 38.3182 53.5672 38.1944C53.7025 38.0884 53.805 37.9464 53.8632 37.7848C53.9214 37.6231 53.9329 37.4483 53.8963 37.2805L51.5017 28.1683ZM9.25842 36.3939C9.11948 36.3137 8.96188 36.2715 8.80144 36.2715C8.64101 36.2715 8.4834 36.3137 8.34446 36.3939L3.14403 39.3003L4.7526 33.2865C4.7873 33.1474 4.78884 33.0022 4.75709 32.8625C4.72533 32.7228 4.66118 32.5925 4.5698 32.4822C2.81243 30.3112 1.84555 27.6071 1.82792 24.814C1.82792 18.4163 7.10148 12.8686 14.3583 11.3697C13.3353 13.5298 12.8016 15.8891 12.7955 18.2792C12.7955 26.5871 19.1383 33.716 28.15 35.873C25.1857 37.703 21.7627 38.6538 18.2792 38.6148C15.1321 38.6459 12.0285 37.8787 9.25842 36.3848V36.3939ZM45.2228 32.0526C45.0838 31.9724 44.9262 31.9302 44.7658 31.9302C44.6054 31.9302 44.4478 31.9724 44.3088 32.0526C41.0971 33.8256 37.4851 34.7474 33.8166 34.7305C32.715 34.734 31.615 34.6514 30.5263 34.4837C21.3136 33.1219 14.6234 26.3129 14.6234 18.2792C14.6339 15.5826 15.3899 12.9414 16.8077 10.6476C20.1071 5.20958 26.6602 1.82792 33.8166 1.82792C44.4002 1.82792 53.0097 9.20359 53.0097 18.2792C52.9916 21.6017 51.8551 24.8212 49.7835 27.4188C49.698 27.5287 49.6388 27.6566 49.6102 27.7928C49.5817 27.929 49.5847 28.0699 49.6189 28.2048L51.5748 35.6445L45.2228 32.0526Z" fill="white"/>
</svg>
