<svg width="46" height="46" viewBox="0 0 46 46" fill="none" xmlns="http://www.w3.org/2000/svg">
<path d="M19.9334 32.2H16.8667V33.7333H19.9334V32.2Z" fill="white"/>
<path d="M23.7668 32.2H21.4668V33.7333H23.7668V32.2Z" fill="white"/>
<path d="M27.6 32.2H25.3V33.7333H27.6V32.2Z" fill="white"/>
<path d="M31.4333 32.2H29.1333V33.7333H31.4333V32.2Z" fill="white"/>
<path d="M35.2667 32.2H32.9667V33.7333H35.2667V32.2Z" fill="white"/>
<path d="M39.1 32.2H36.8V33.7333H39.1V32.2Z" fill="white"/>
<path d="M42.9333 32.2H40.6333V33.7333H42.9333V32.2Z" fill="white"/>
<path d="M20.7 35.2666H16.8667V36.7999H20.7V35.2666Z" fill="white"/>
<path d="M24.5334 35.2666H22.2334V36.7999H24.5334V35.2666Z" fill="white"/>
<path d="M28.3668 35.2666H26.0668V36.7999H28.3668V35.2666Z" fill="white"/>
<path d="M32.2 35.2666H29.9V36.7999H32.2V35.2666Z" fill="white"/>
<path d="M36.0334 35.2666H33.7334V36.7999H36.0334V35.2666Z" fill="white"/>
<path d="M42.9333 35.2666H37.5667V36.7999H42.9333V35.2666Z" fill="white"/>
<path d="M21.4667 38.3335H16.8667V39.8668H21.4667V38.3335Z" fill="white"/>
<path d="M25.3 38.3335H23V39.8668H25.3V38.3335Z" fill="white"/>
<path d="M29.1334 38.3335H26.8334V39.8668H29.1334V38.3335Z" fill="white"/>
<path d="M32.9667 38.3335H30.6667V39.8668H32.9667V38.3335Z" fill="white"/>
<path d="M36.8 38.3335H34.5V39.8668H36.8V38.3335Z" fill="white"/>
<path d="M39.8667 38.3335H38.3334V39.8668H39.8667V38.3335Z" fill="white"/>
<path d="M19.9334 41.3999H16.8667V42.9332H19.9334V41.3999Z" fill="white"/>
<path d="M23.0001 41.3999H21.4668V42.9332H23.0001V41.3999Z" fill="white"/>
<path d="M33.7334 41.3999H24.5334V42.9332H33.7334V41.3999Z" fill="white"/>
<path d="M36.8001 41.3999H35.2667V42.9332H36.8001V41.3999Z" fill="white"/>
<path d="M39.8667 41.3999H38.3334V42.9332H39.8667V41.3999Z" fill="white"/>
<path d="M42.9334 41.3999H41.4V42.9332H42.9334V41.3999Z" fill="white"/>
<path d="M42.9334 38.3335H41.4V39.8668H42.9334V38.3335Z" fill="white"/>
<path d="M45.9509 5.888C45.9425 5.86347 45.9364 5.8397 45.9249 5.81593C45.8873 5.73467 45.8405 5.65723 45.7746 5.5913L40.408 0.224633C40.342 0.1587 40.2638 0.111167 40.1825 0.0736C40.1603 0.0636333 40.1373 0.0567332 40.1135 0.0490666C40.0476 0.0260666 39.9802 0.0130333 39.9104 0.00843327C39.8958 0.0076666 39.882 0 39.8667 0H18.4001C17.9769 0 17.6334 0.343467 17.6334 0.766667V6.9H13.8001C11.6864 6.9 9.96678 8.61963 9.96678 10.7333V13.8H6.90012V8.75073L8.97548 6.67537C9.24074 6.4101 9.27524 5.99227 9.05751 5.6879L5.22419 0.321233C4.93592 -0.0820334 4.26433 -0.0820334 3.97606 0.321233L0.142739 5.6879C-0.0749936 5.99227 -0.0404937 6.4101 0.224772 6.67537L2.30013 8.75073V13.8H0.766804C0.343605 13.8 0.00013947 14.1435 0.00013947 14.5667V23V38.3333C0.00013947 38.7565 0.343605 39.1 0.766804 39.1H13.8001V41.4H12.2668C10.9987 41.4 9.96678 42.4319 9.96678 43.7C9.96678 44.1224 9.62254 44.4667 9.20011 44.4667H3.0668V46H9.20011C10.4682 46 11.5001 44.9681 11.5001 43.7C11.5001 43.2776 11.8443 42.9333 12.2668 42.9333H13.8001V45.2333C13.8001 45.6565 14.1436 46 14.5668 46H45.2333C45.6565 46 46 45.6565 46 45.2333V29.9V6.13333C46 6.11647 45.9916 6.1019 45.99 6.08503C45.9862 6.01757 45.9732 5.9524 45.9509 5.888ZM43.3826 5.36667H40.6334V2.6174L43.3826 5.36667ZM19.1667 1.53333H39.1V6.13333C39.1 6.55653 39.4435 6.9 39.8667 6.9H44.4667V29.1333H36.8V23V14.5667C36.8 14.1435 36.4566 13.8 36.0334 13.8H26.8334V10.7333C26.8334 8.61963 25.1138 6.9 23.0001 6.9H19.1667V1.53333ZM11.5001 10.7333C11.5001 9.46527 12.532 8.43333 13.8001 8.43333H18.4001H23.0001C24.2681 8.43333 25.3001 9.46527 25.3001 10.7333V13.8H23.7667V10.7333C23.7667 10.3101 23.4233 9.96667 23.0001 9.96667H13.8001C13.3769 9.96667 13.0334 10.3101 13.0334 10.7333V13.8H11.5001V10.7333ZM19.1667 13.8V11.5H22.2334V13.8H19.1667ZM14.5668 13.8V11.5H17.6334V13.8H14.5668ZM3.83346 3.15943V5.36667H5.36679V3.15943L7.43218 6.05053L5.81606 7.66667H3.3842L1.76807 6.05053L3.83346 3.15943ZM3.83346 9.2H5.36679V13.8H3.83346V9.2ZM1.53347 15.3333H3.0668H6.13345H10.7334H13.8001H23.0001H26.0667H35.2667V22.6826L33.416 24.5333H21.4667V22.2333C21.4667 21.8101 21.1233 21.4667 20.7001 21.4667H16.1001C15.6769 21.4667 15.3334 21.8101 15.3334 22.2333V24.5333H3.3842L1.53347 22.6826V15.3333ZM19.9334 24.5333H16.8668V23H19.9334V24.5333ZM1.53347 37.5667V24.8507L2.52477 25.842C2.66813 25.9862 2.86363 26.0667 3.0668 26.0667H16.1001H20.7001H33.7334C33.9365 26.0667 34.132 25.9862 34.2754 25.842L35.2667 24.8507V29.1333H14.5668C14.1436 29.1333 13.8001 29.4768 13.8001 29.9V37.5667H1.53347ZM44.4667 44.4667H15.3334V38.3333V30.6667H36.0334H44.4667V44.4667Z" fill="white"/>
<path d="M42.9334 13.8H38.3334V15.3334H42.9334V13.8Z" fill="white"/>
<path d="M42.9334 16.8667H38.3334V18.4H42.9334V16.8667Z" fill="white"/>
<path d="M42.9334 19.9333H38.3334V21.4667H42.9334V19.9333Z" fill="white"/>
<path d="M42.9334 23H38.3334V24.5333H42.9334V23Z" fill="white"/>
<path d="M42.9334 26.0667H38.3334V27.6H42.9334V26.0667Z" fill="white"/>
<path d="M30.6667 9.20001C30.8637 9.20001 31.0608 9.12411 31.2095 8.97538L33.7909 6.39401L37.0883 9.03211L38.0458 7.83458L34.2125 4.76791C33.9082 4.52334 33.4666 4.54864 33.1913 4.82464L30.61 7.40601L27.3125 4.76791L26.355 5.96544L30.1883 9.03211C30.3286 9.14481 30.498 9.20001 30.6667 9.20001Z" fill="white"/>
<path d="M42.9333 10.7333H29.1333V12.2666H42.9333V10.7333Z" fill="white"/>
<path d="M1.53345 44.4666H0.00012207V45.9999H1.53345V44.4666Z" fill="white"/>
<path d="M4.6001 34.5H3.06677V36.0333H4.6001V34.5Z" fill="white"/>
<path d="M7.66675 34.5H6.13342V36.0333H7.66675V34.5Z" fill="white"/>
<path d="M10.7334 34.5H9.20007V36.0333H10.7334V34.5Z" fill="white"/>
</svg>
