<svg width="44" height="39" viewBox="0 0 44 39" fill="none" xmlns="http://www.w3.org/2000/svg">
<path d="M18.3705 23.3633V26.0557L8.80005 21.9074V19.6053L18.3705 15.4574V18.1687L11.7018 20.7378L18.3705 23.3633Z" fill="white"/>
<path d="M24.2881 15.4002L21.6239 26.3694C21.5355 26.7306 21.458 27.0166 21.3912 27.2256C21.3247 27.435 21.2231 27.5992 21.0871 27.7149C20.9507 27.8328 20.7523 27.8909 20.4922 27.8909C19.8454 27.8909 19.5216 27.611 19.5216 27.054C19.5216 26.9079 19.5854 26.5436 19.7121 25.9602L22.3666 14.991C22.5061 14.4075 22.639 14.008 22.7657 13.7924C22.8929 13.5768 23.1402 13.469 23.5084 13.469C23.8257 13.469 24.0677 13.5451 24.2358 13.6974C24.4038 13.8496 24.4879 14.059 24.4879 14.3252C24.4879 14.5219 24.421 14.8801 24.2881 15.4002Z" fill="white"/>
<path d="M35.2001 21.9074L25.6296 26.0746V23.3822L32.3176 20.7568L25.6296 18.1687V15.4952L35.2001 19.6242V21.9074Z" fill="white"/>
<path d="M41.36 0H2.64C1.18228 0 0 1.18228 0 2.64V36.08C0 37.5377 1.18228 38.72 2.64 38.72H41.36C42.8182 38.72 44 37.5373 44 36.08V2.64C44 1.18184 42.8182 0 41.36 0ZM34.76 1.76C35.7302 1.76 36.52 2.54936 36.52 3.52C36.52 4.49064 35.7302 5.28 34.76 5.28C33.7898 5.28 33 4.49064 33 3.52C33 2.54936 33.7898 1.76 34.76 1.76ZM29.92 1.76C30.8902 1.76 31.68 2.54936 31.68 3.52C31.68 4.49064 30.8902 5.28 29.92 5.28C28.9498 5.28 28.16 4.49064 28.16 3.52C28.16 2.54936 28.9498 1.76 29.92 1.76ZM41.36 36.08H2.64V7.04H41.36V36.08ZM39.6 5.28C38.6298 5.28 37.84 4.49064 37.84 3.52C37.84 2.54936 38.6298 1.76 39.6 1.76C40.5702 1.76 41.36 2.54936 41.36 3.52C41.36 4.49064 40.5702 5.28 39.6 5.28Z" fill="white"/>
</svg>
